<svg width="130" height="41" viewBox="0 0 130 41" fill="none" xmlns="http://www.w3.org/2000/svg">
<path d="M23.4722 33V11.1818H31.1C32.6198 11.1818 33.8736 11.4446 34.8606 11.9702C35.8478 12.4886 36.5831 13.1882 37.0658 14.0689C37.5488 14.9425 37.7903 15.9119 37.7903 16.9773C37.7903 17.9148 37.6236 18.6889 37.2896 19.2997C36.9631 19.9105 36.5298 20.3935 35.9901 20.7486C35.4573 21.1037 34.8783 21.3665 34.2533 21.5369V21.75C34.9211 21.7926 35.5923 22.027 36.2668 22.4531C36.9416 22.8792 37.5063 23.49 37.9608 24.2855C38.4153 25.081 38.6426 26.054 38.6426 27.2045C38.6426 28.2982 38.3941 29.282 37.8968 30.1555C37.3998 31.029 36.6151 31.7215 35.5426 32.233C34.4701 32.7442 33.0746 33 31.3558 33H23.4722ZM26.1143 30.6562H31.3558C33.0816 30.6562 34.3068 30.3225 35.0311 29.6547C35.7626 28.98 36.1283 28.1632 36.1283 27.2045C36.1283 26.466 35.9403 25.784 35.5638 25.1591C35.1873 24.527 34.6511 24.0227 33.9551 23.6463C33.2591 23.2628 32.4353 23.071 31.4836 23.071H26.1143V30.6562ZM26.1143 20.7699H31.0148C31.8103 20.7699 32.5276 20.6136 33.1668 20.3011C33.8131 19.9886 34.3246 19.5483 34.7008 18.9801C35.0843 18.4119 35.2761 17.7443 35.2761 16.9773C35.2761 16.0185 34.9423 15.2052 34.2748 14.5376C33.6071 13.8629 32.5488 13.5256 31.1 13.5256H26.1143V20.7699ZM42.6431 33V16.6364H45.0721V19.1079H45.2423C45.5408 18.2983 46.0806 17.6413 46.8618 17.1371C47.6431 16.6328 48.5236 16.3807 49.5038 16.3807C49.6886 16.3807 49.9193 16.3842 50.1963 16.3913C50.4733 16.3984 50.6828 16.4091 50.8248 16.4233V18.9801C50.7396 18.9588 50.5443 18.9268 50.2388 18.8842C49.9406 18.8345 49.6246 18.8096 49.2908 18.8096C48.4953 18.8096 47.7851 18.9765 47.1601 19.3104C46.5421 19.6371 46.0521 20.0916 45.6898 20.674C45.3348 21.2493 45.1573 21.9062 45.1573 22.6449V33H42.6431ZM58.6206 33.3835C57.5836 33.3835 56.6426 33.1882 55.7973 32.7975C54.9521 32.3997 54.2811 31.828 53.7838 31.0825C53.2866 30.3295 53.0381 29.4205 53.0381 28.355C53.0381 27.4175 53.2228 26.6577 53.5921 26.0752C53.9613 25.4858 54.4551 25.0241 55.0728 24.6903C55.6908 24.3565 56.3726 24.1079 57.1183 23.9446C57.8711 23.7741 58.6276 23.6392 59.3876 23.5398C60.3818 23.4119 61.1878 23.316 61.8058 23.2521C62.4308 23.1811 62.8853 23.0639 63.1696 22.9006C63.4606 22.7372 63.6063 22.4531 63.6063 22.0483V21.9631C63.6063 20.9119 63.3186 20.0952 62.7433 19.5128C62.1751 18.9304 61.3123 18.6392 60.1546 18.6392C58.9543 18.6392 58.0133 18.902 57.3313 19.4275C56.6496 19.9531 56.1701 20.5142 55.8931 21.1108L53.5068 20.2585C53.9331 19.2642 54.5011 18.49 55.2113 17.9361C55.9286 17.375 56.7098 16.9844 57.5551 16.7642C58.4073 16.5369 59.2456 16.4233 60.0693 16.4233C60.5948 16.4233 61.1986 16.4872 61.8803 16.615C62.5693 16.7358 63.2333 16.9879 63.8726 17.3714C64.5188 17.755 65.0551 18.3338 65.4813 19.1079C65.9073 19.8821 66.1206 20.919 66.1206 22.2187V33H63.6063V30.784H63.4783C63.3081 31.1392 63.0238 31.5192 62.6261 31.924C62.2283 32.3287 61.6993 32.6732 61.0388 32.9575C60.3783 33.2415 59.5721 33.3835 58.6206 33.3835ZM59.0041 31.125C59.9983 31.125 60.8363 30.9297 61.5181 30.539C62.2071 30.1485 62.7256 29.6442 63.0736 29.0262C63.4286 28.4085 63.6063 27.7585 63.6063 27.0767V24.7756C63.4998 24.9034 63.2653 25.0206 62.9031 25.1271C62.5481 25.2265 62.1361 25.3153 61.6673 25.3935C61.2056 25.4645 60.7546 25.5285 60.3143 25.5852C59.8811 25.635 59.5296 25.6775 59.2596 25.713C58.6063 25.7982 57.9956 25.9367 57.4273 26.1285C56.8661 26.3132 56.4116 26.5937 56.0636 26.9702C55.7228 27.3395 55.5523 27.8437 55.5523 28.483C55.5523 29.3565 55.8753 30.017 56.5218 30.4645C57.1751 30.9047 58.0026 31.125 59.0041 31.125ZM77.3571 33.341C75.8231 33.341 74.5021 32.9787 73.3941 32.2542C72.2861 31.5297 71.4338 30.532 70.8373 29.2607C70.2406 27.9892 69.9423 26.537 69.9423 24.9034C69.9423 23.2415 70.2478 21.7748 70.8586 20.5035C71.4766 19.2251 72.3358 18.2273 73.4366 17.5099C74.5446 16.7855 75.8373 16.4233 77.3146 16.4233C78.4651 16.4233 79.5021 16.6364 80.4254 17.0625C81.3486 17.4886 82.1051 18.0852 82.6946 18.8523C83.2841 19.6193 83.6499 20.5142 83.7919 21.5369H81.2776C81.0859 20.7912 80.6596 20.1307 79.9991 19.5554C79.3458 18.973 78.4651 18.6818 77.3571 18.6818C76.3771 18.6818 75.5176 18.9375 74.7791 19.4489C74.0476 19.9531 73.4758 20.6669 73.0638 21.5902C72.6591 22.5064 72.4566 23.5824 72.4566 24.8182C72.4566 26.0825 72.6553 27.1832 73.0531 28.1207C73.4581 29.0582 74.0261 29.7862 74.7578 30.3047C75.4963 30.8232 76.3629 31.0825 77.3571 31.0825C78.0106 31.0825 78.6036 30.9687 79.1363 30.7415C79.6688 30.5142 80.1199 30.1875 80.4894 29.7612C80.8586 29.3352 81.1214 28.8237 81.2776 28.2272H83.7919C83.6499 29.1932 83.2981 30.0632 82.7371 30.8372C82.1831 31.6045 81.4481 32.2152 80.5318 32.6697C79.6228 33.1172 78.5646 33.341 77.3571 33.341ZM89.8111 27.034L89.7684 23.9233H90.2799L97.4389 16.6364H100.55L92.9219 24.3494H92.7089L89.8111 27.034ZM87.4674 33V11.1818H89.9814V33H87.4674ZM97.8651 33L91.4729 24.9034L93.2626 23.1562L101.061 33H97.8651ZM109.973 33.341C108.396 33.341 107.036 32.993 105.892 32.297C104.756 31.5937 103.879 30.6137 103.261 29.3565C102.65 28.0922 102.345 26.6222 102.345 24.946C102.345 23.2699 102.65 21.7926 103.261 20.5142C103.879 19.2287 104.738 18.2273 105.839 17.5099C106.947 16.7855 108.24 16.4233 109.717 16.4233C110.569 16.4233 111.411 16.5653 112.242 16.8494C113.073 17.1335 113.829 17.5952 114.511 18.2344C115.193 18.8665 115.736 19.7045 116.141 20.7486C116.546 21.7926 116.748 23.0781 116.748 24.6051V25.6705H104.135V23.4971H114.191C114.191 22.5739 114.007 21.75 113.637 21.0256C113.275 20.3011 112.757 19.7294 112.082 19.3104C111.414 18.8913 110.626 18.6818 109.717 18.6818C108.716 18.6818 107.849 18.9304 107.117 19.4275C106.393 19.9176 105.836 20.5568 105.445 21.3452C105.054 22.1335 104.859 22.9787 104.859 23.8807V25.3295C104.859 26.5652 105.072 27.613 105.498 28.4722C105.931 29.3245 106.532 29.9745 107.299 30.422C108.066 30.8622 108.957 31.0825 109.973 31.0825C110.633 31.0825 111.23 30.99 111.762 30.8055C112.302 30.6137 112.767 30.3295 113.158 29.953C113.549 29.5695 113.85 29.0937 114.064 28.5255L116.492 29.2075C116.237 30.0312 115.807 30.7557 115.203 31.3807C114.6 31.9985 113.854 32.4815 112.966 32.8295C112.078 33.1705 111.081 33.341 109.973 33.341ZM127.689 16.6364V18.767H119.209V16.6364H127.689ZM121.681 12.7159H124.195V28.3125C124.195 29.0227 124.298 29.5555 124.504 29.9105C124.717 30.2585 124.987 30.493 125.314 30.6137C125.647 30.7272 125.999 30.784 126.368 30.784C126.645 30.784 126.872 30.77 127.05 30.7415C127.228 30.706 127.37 30.6775 127.476 30.6562L127.988 32.9147C127.817 32.9787 127.579 33.0425 127.274 33.1065C126.968 33.1775 126.581 33.213 126.113 33.213C125.402 33.213 124.706 33.0602 124.024 32.755C123.35 32.4495 122.789 31.9845 122.341 31.3595C121.901 30.7345 121.681 29.946 121.681 28.9942V12.7159Z" fill="#5E5E5E"/>
<path d="M3.91772 34.9318V7.65909H10.2245V9.74714H6.30408V32.8438H10.2245V34.9318H3.91772ZM18.5795 7.65909V34.9318H12.2727V32.8438H16.1931V9.74714H12.2727V7.65909H18.5795Z" fill="#0496FF"/>
</svg>
